<?xml version="1.0" encoding="UTF-8" standalone="no" ?>
<!DOCTYPE svg PUBLIC "-//W3C//DTD SVG 1.1//EN" "http://www.w3.org/Graphics/SVG/1.1/DTD/svg11.dtd">
<svg xmlns="http://www.w3.org/2000/svg" xmlns:xlink="http://www.w3.org/1999/xlink" version="1.1" width="1080" height="1080" viewBox="0 0 1080 1080" xml:space="preserve">
<desc>Created with Fabric.js 5.2.4</desc>
<defs>
</defs>
<rect x="0" y="0" width="100%" height="100%" fill="transparent"></rect>
<g transform="matrix(1 0 0 1 540 540)" id="251b8802-bd71-4e64-a6c9-c822e5524f59"  >
<rect style="stroke: none; stroke-width: 1; stroke-dasharray: none; stroke-linecap: butt; stroke-dashoffset: 0; stroke-linejoin: miter; stroke-miterlimit: 4; fill: rgb(255,255,255); fill-rule: nonzero; opacity: 1; visibility: hidden;" vector-effect="non-scaling-stroke"  x="-540" y="-540" rx="0" ry="0" width="1080" height="1080" />
</g>
<g transform="matrix(1 0 0 1 540 540)" id="351e92b6-5d40-4588-a52c-f79eec4bf5f3"  >
</g>
<g transform="matrix(0.4 0 0 0.4 154.96 39.54)"  >
<g style="" vector-effect="non-scaling-stroke"   >
		<g transform="matrix(1 0 0 1 -355.3 -38.45)" id="Path_4759"  >
<path style="stroke: none; stroke-width: 1; stroke-dasharray: none; stroke-linecap: butt; stroke-dashoffset: 0; stroke-linejoin: miter; stroke-miterlimit: 4; fill: rgb(0,0,0); fill-rule: nonzero; opacity: 1;" vector-effect="non-scaling-stroke"  transform=" translate(-9.24, -35.75)" d="M 0 66.6 L 0 5.2 C 0 4 0.5 2.8 1.4 2 C 2.3 1.1 3.4 0.6000000000000001 4.6 0.6000000000000001 L 13.799999999999999 0.6000000000000001 C 15.1 0.6000000000000001 16.299999999999997 1.1 17.2 2 C 18.099999999999998 2.9 18.5 4 18.5 5.2 L 18.5 66.4 C 18.5 67.60000000000001 18 68.80000000000001 17.1 69.60000000000001 C 16.200000000000003 70.50000000000001 15.100000000000001 70.9 13.900000000000002 70.9 L 4.7 70.9 C 3.5 70.9 2.3000000000000003 70.5 1.5 69.60000000000001 C 0.5 68.9 -0.1 67.8 0 66.6 z" stroke-linecap="round" />
</g>
		<g transform="matrix(1 0 0 1 -295.49 -38.4)" id="Path_4760"  >
<path style="stroke: none; stroke-width: 1; stroke-dasharray: none; stroke-linecap: butt; stroke-dashoffset: 0; stroke-linejoin: miter; stroke-miterlimit: 4; fill: rgb(0,0,0); fill-rule: nonzero; opacity: 1;" vector-effect="non-scaling-stroke"  transform=" translate(-69.05, -35.8)" d="M 32.6 66.4 L 32.6 5.2 C 32.6 4 33 2.8000000000000003 33.9 2 C 34.699999999999996 1.1 35.9 0.6000000000000001 37.1 0.6000000000000001 L 51.5 0.6000000000000001 C 52.8 0.7000000000000001 54.1 1.2000000000000002 55.1 2 C 56.300000000000004 2.9 57.4 4 58.2 5.2 L 88.1 51 L 88.1 5.1 C 88 2.5999999999999996 90 0.5999999999999996 92.39999999999999 0.5999999999999996 C 92.49999999999999 0.5999999999999996 92.49999999999999 0.5999999999999996 92.6 0.5999999999999996 L 101 0.5999999999999996 C 102.2 0.5999999999999996 103.4 0.9999999999999997 104.2 1.8999999999999997 C 105.10000000000001 2.8 105.5 4 105.5 5.3 L 105.5 66.5 C 105.6 69 103.6 71 101.2 71 C 101.10000000000001 71 101.10000000000001 71 101 71 L 84.9 71 C 83.5 71 82.10000000000001 70.5 81 69.7 C 79.7 68.8 78.6 67.7 77.8 66.5 L 50.6 24.3 L 50.6 66.5 C 50.7 69 48.7 71 46.300000000000004 71 C 46.2 71 46.2 71 46.1 71 L 37.5 71 C 36.3 71 35.1 70.6 34.3 69.7 C 33.2 69 32.6 67.7 32.6 66.4 z" stroke-linecap="round" />
</g>
		<g transform="matrix(1 0 0 1 -131.5 -38.45)" id="Path_4761"  >
<path style="stroke: none; stroke-width: 1; stroke-dasharray: none; stroke-linecap: butt; stroke-dashoffset: 0; stroke-linejoin: miter; stroke-miterlimit: 4; fill: rgb(0,0,0); fill-rule: nonzero; opacity: 1;" vector-effect="non-scaling-stroke"  transform=" translate(-233.05, -35.75)" d="M 223.8 66.6 L 223.8 5.2 C 223.8 4 224.3 2.8000000000000003 225.20000000000002 2 C 226.10000000000002 1.1 227.20000000000002 0.6000000000000001 228.4 0.6000000000000001 L 237.6 0.6000000000000001 C 238.9 0.6000000000000001 240.1 1.1 241 2 C 241.9 2.9 242.3 4 242.3 5.2 L 242.3 66.4 C 242.3 67.60000000000001 241.8 68.80000000000001 240.9 69.60000000000001 C 240 70.50000000000001 238.9 70.9 237.70000000000002 70.9 L 228.50000000000003 70.9 C 227.30000000000004 70.9 226.10000000000002 70.5 225.30000000000004 69.60000000000001 C 224.3 68.9 223.8 67.8 223.8 66.6 z" stroke-linecap="round" />
</g>
		<g transform="matrix(1 0 0 1 -71.45 -38.4)" id="Path_4762"  >
<path style="stroke: none; stroke-width: 1; stroke-dasharray: none; stroke-linecap: butt; stroke-dashoffset: 0; stroke-linejoin: miter; stroke-miterlimit: 4; fill: rgb(0,0,0); fill-rule: nonzero; opacity: 1;" vector-effect="non-scaling-stroke"  transform=" translate(-293.1, -35.8)" d="M 256.6 66.4 L 256.6 5.2 C 256.6 4 257 2.8000000000000003 257.90000000000003 2 C 258.70000000000005 1.1 259.90000000000003 0.6000000000000001 261.1 0.6000000000000001 L 275.5 0.6000000000000001 C 276.8 0.7000000000000001 278.1 1.2000000000000002 279.1 2 C 280.3 2.9 281.40000000000003 4 282.20000000000005 5.2 L 312.1 51 L 312.1 5.1 C 312 2.5999999999999996 314 0.5999999999999996 316.40000000000003 0.5999999999999996 C 316.50000000000006 0.5999999999999996 316.50000000000006 0.5999999999999996 316.6 0.5999999999999996 L 325.1 0.5999999999999996 C 326.3 0.5999999999999996 327.5 0.9999999999999997 328.3 1.8999999999999997 C 329.2 2.8 329.6 4 329.6 5.3 L 329.6 66.5 C 329.70000000000005 69 327.70000000000005 71 325.3 71 C 325.2 71 325.2 71 325.1 71 L 308.70000000000005 71 C 307.30000000000007 71 305.90000000000003 70.5 304.80000000000007 69.7 C 303.50000000000006 68.8 302.4000000000001 67.7 301.6000000000001 66.5 L 274.4000000000001 24.299999999999997 L 274.4000000000001 66.5 C 274.5000000000001 69 272.5000000000001 71 270.1000000000001 71 C 270.00000000000006 71 270.00000000000006 71 269.9000000000001 71 L 261.30000000000007 71 C 260.1000000000001 71 258.9000000000001 70.6 258.1000000000001 69.7 C 257 68.9 256.5 67.7 256.6 66.4 z" stroke-linecap="round" />
</g>
		<g transform="matrix(1 0 0 1 11.59 -38.6)" id="Path_4763"  >
<path style="stroke: none; stroke-width: 1; stroke-dasharray: none; stroke-linecap: butt; stroke-dashoffset: 0; stroke-linejoin: miter; stroke-miterlimit: 4; fill: rgb(0,0,0); fill-rule: nonzero; opacity: 1;" vector-effect="non-scaling-stroke"  transform=" translate(-376.13, -35.6)" d="M 339.9 53 C 339.7 51.4 340.4 49.9 341.59999999999997 48.8 C 342.59999999999997 48 343.7 47.599999999999994 344.99999999999994 47.5 L 350.79999999999995 47.5 C 353.79999999999995 47.5 355.99999999999994 49.1 357.59999999999997 52.3 C 359.2 55.49999999999999 362.49999999999994 57.099999999999994 367.99999999999994 57.099999999999994 L 385.29999999999995 57.49999999999999 C 390.99999999999994 57.49999999999999 393.9 55.599999999999994 393.9 51.79999999999999 C 393.9 48.89999999999999 390.4 46.69999999999999 383.4 44.99999999999999 C 380.29999999999995 44.199999999999996 376.79999999999995 43.599999999999994 373 42.79999999999999 C 369.20000000000005 41.999999999999986 365.5 41.09999999999999 361.7 39.89999999999999 C 358.2 38.79999999999999 354.7 37.49999999999999 351.3 35.99999999999999 C 348.3 34.49999999999999 345.7 32.39999999999999 343.6 29.799999999999994 C 341.6 27.099999999999994 340.5 23.799999999999994 340.6 20.39999999999999 C 340.6 13.799999999999992 342.90000000000003 8.699999999999992 347.6 5.199999999999992 C 352.3 1.599999999999992 360.3 -0.10000000000000764 371.8 -0.10000000000000764 L 384.3 0.19999999999999235 C 390.7 0.09999999999999235 397.1 1.8999999999999924 402.5 5.399999999999992 C 408 8.799999999999992 410.6 13.199999999999992 410.6 18.39999999999999 C 410.8 19.999999999999993 410.1 21.499999999999993 408.90000000000003 22.59999999999999 C 408.00000000000006 23.29999999999999 406.8 23.79999999999999 405.70000000000005 23.89999999999999 L 399.90000000000003 23.89999999999999 C 396.90000000000003 23.89999999999999 394.70000000000005 22.29999999999999 393.1 19.09999999999999 C 391.5 15.899999999999991 388.20000000000005 14.29999999999999 382.70000000000005 14.29999999999999 L 367.7 14 C 362 14 359.09999999999997 16 359.09999999999997 19.7 C 359.09999999999997 21.8 360.9 23.5 364.59999999999997 24.799999999999997 C 368.9 26.299999999999997 373.4 27.4 377.9 28.199999999999996 C 383.09999999999997 29.199999999999996 388.29999999999995 30.399999999999995 393.5 31.799999999999997 C 398.4 33.099999999999994 403 35.5 406.9 38.699999999999996 C 410.4 41.699999999999996 412.4 46.099999999999994 412.4 50.8 C 412.4 57.4 410.09999999999997 62.5 405.4 66 C 400.7 69.6 392.7 71.3 381.2 71.3 L 366.3 71 C 359.90000000000003 71.1 353.5 69.3 348.1 65.8 C 342.6 62.5 339.9 58.2 339.9 53 z" stroke-linecap="round" />
</g>
		<g transform="matrix(1 0 0 1 90.75 -38.5)" id="Path_4764"  >
<path style="stroke: none; stroke-width: 1; stroke-dasharray: none; stroke-linecap: butt; stroke-dashoffset: 0; stroke-linejoin: miter; stroke-miterlimit: 4; fill: rgb(0,0,0); fill-rule: nonzero; opacity: 1;" vector-effect="non-scaling-stroke"  transform=" translate(-455.3, -35.7)" d="M 422.4 66.4 L 422.4 5.1 C 422.4 3.8999999999999995 422.9 2.6999999999999997 423.79999999999995 1.8999999999999995 C 424.69999999999993 0.9999999999999994 425.79999999999995 0.5999999999999994 426.99999999999994 0.5999999999999994 L 483.69999999999993 0.5999999999999994 C 484.8999999999999 0.5999999999999994 486.0999999999999 1.0999999999999994 486.8999999999999 1.9999999999999993 C 487.7999999999999 2.8999999999999995 488.19999999999993 3.999999999999999 488.19999999999993 5.199999999999999 L 488.19999999999993 9.899999999999999 C 488.29999999999995 12.399999999999999 486.29999999999995 14.399999999999999 483.8999999999999 14.399999999999999 C 483.7999999999999 14.399999999999999 483.7999999999999 14.399999999999999 483.69999999999993 14.399999999999999 L 440.79999999999995 14.399999999999999 L 440.79999999999995 28.7 L 477.69999999999993 28.7 C 480.19999999999993 28.599999999999998 482.19999999999993 30.599999999999998 482.19999999999993 33 C 482.19999999999993 33.1 482.19999999999993 33.1 482.19999999999993 33.2 L 482.19999999999993 38 C 482.29999999999995 40.5 480.29999999999995 42.5 477.8999999999999 42.5 C 477.7999999999999 42.5 477.7999999999999 42.5 477.69999999999993 42.5 L 440.79999999999995 42.5 L 440.79999999999995 57.1 L 483.59999999999997 57.1 C 486.09999999999997 57 488.09999999999997 59 488.09999999999997 61.4 C 488.09999999999997 61.5 488.09999999999997 61.5 488.09999999999997 61.6 L 488.09999999999997 66.3 C 488.09999999999997 67.5 487.59999999999997 68.7 486.7 69.5 C 485.8 70.4 484.7 70.8 483.5 70.8 L 427 70.8 C 425.8 70.8 424.6 70.39999999999999 423.8 69.5 C 422.8 68.8 422.3 67.6 422.4 66.4 z" stroke-linecap="round" />
</g>
		<g transform="matrix(1 0 0 1 169.31 -38.4)" id="Path_4765"  >
<path style="stroke: none; stroke-width: 1; stroke-dasharray: none; stroke-linecap: butt; stroke-dashoffset: 0; stroke-linejoin: miter; stroke-miterlimit: 4; fill: rgb(0,0,0); fill-rule: nonzero; opacity: 1;" vector-effect="non-scaling-stroke"  transform=" translate(-533.85, -35.8)" d="M 497.4 66.4 L 497.4 5.2 C 497.4 4 497.79999999999995 2.8000000000000003 498.7 2 C 499.5 1.1 500.7 0.6000000000000001 501.9 0.6000000000000001 L 516.3 0.6000000000000001 C 517.5999999999999 0.7000000000000001 518.9 1.2000000000000002 519.9 2 C 521.1 2.9 522.1999999999999 4 523 5.2 L 552.9 51 L 552.9 5.1 C 552.8 2.5999999999999996 554.8 0.5999999999999996 557.1999999999999 0.5999999999999996 C 557.3 0.5999999999999996 557.3 0.5999999999999996 557.4 0.5999999999999996 L 565.8 0.5999999999999996 C 567 0.5999999999999996 568.1999999999999 0.9999999999999997 569 1.8999999999999997 C 569.9 2.8 570.3 4 570.3 5.3 L 570.3 66.5 C 570.4 69 568.4 71 566 71 C 565.9 71 565.9 71 565.8 71 L 549.4 71 C 548 71 546.6 70.5 545.5 69.7 C 544.2 68.8 543.1 67.7 542.3 66.5 L 515.0999999999999 24.299999999999997 L 515.0999999999999 66.5 C 515.1999999999999 69 513.1999999999999 71 510.7999999999999 71 C 510.6999999999999 71 510.6999999999999 71 510.5999999999999 71 L 501.9999999999999 71 C 500.7999999999999 71 499.5999999999999 70.6 498.7999999999999 69.7 C 497.9 68.9 497.4 67.7 497.4 66.4 z" stroke-linecap="round" />
</g>
		<g transform="matrix(1 0 0 1 252.59 -38.5)" id="Path_4766"  >
<path style="stroke: none; stroke-width: 1; stroke-dasharray: none; stroke-linecap: butt; stroke-dashoffset: 0; stroke-linejoin: miter; stroke-miterlimit: 4; fill: rgb(0,0,0); fill-rule: nonzero; opacity: 1;" vector-effect="non-scaling-stroke"  transform=" translate(-617.13, -35.7)" d="M 580.9 53 C 580.6999999999999 51.4 581.4 49.9 582.6 48.8 C 583.6 48 584.7 47.599999999999994 586 47.5 L 591.8 47.5 C 594.8 47.5 597 49.1 598.5999999999999 52.3 C 600.1999999999999 55.5 603.4999999999999 57.099999999999994 608.9999999999999 57.099999999999994 L 626.2999999999998 57.599999999999994 C 631.9999999999999 57.599999999999994 634.8999999999999 55.699999999999996 634.8999999999999 51.89999999999999 C 634.8999999999999 48.99999999999999 631.3999999999999 46.79999999999999 624.3999999999999 45.099999999999994 C 621.2999999999998 44.3 617.7999999999998 43.699999999999996 613.9999999999999 42.89999999999999 C 610.1999999999999 42.09999999999999 606.4999999999999 41.19999999999999 602.6999999999999 39.99999999999999 C 599.1999999999999 38.89999999999999 595.6999999999999 37.599999999999994 592.3 36.099999999999994 C 589.3 34.599999999999994 586.6999999999999 32.49999999999999 584.5999999999999 29.899999999999995 C 582.5999999999999 27.199999999999996 581.4999999999999 23.899999999999995 581.5999999999999 20.499999999999993 C 581.5999999999999 13.899999999999993 583.8999999999999 8.799999999999994 588.5999999999999 5.299999999999994 C 593.3 1.6999999999999935 601.3 -6.217248937900877e-15 612.8 -6.217248937900877e-15 L 625.3 0.29999999999999377 C 631.6999999999999 0.19999999999999377 638.0999999999999 1.9999999999999938 643.5 5.499999999999994 C 649 8.899999999999993 651.6 13.299999999999994 651.6 18.499999999999993 C 651.8000000000001 20.099999999999994 651.1 21.599999999999994 649.9 22.699999999999992 C 649 23.39999999999999 647.8 23.89999999999999 646.6999999999999 23.999999999999993 L 640.6999999999999 23.999999999999993 C 637.6999999999999 23.999999999999993 635.4999999999999 22.39999999999999 633.9 19.199999999999992 C 632.3 15.999999999999993 629 14.399999999999991 623.5 14.399999999999991 L 608.7 14.09999999999999 C 603 14.09999999999999 600.1 15.999999999999991 600.1 19.79999999999999 C 600.1 21.89999999999999 601.9 23.59999999999999 605.6 24.89999999999999 C 609.9 26.39999999999999 614.4 27.499999999999993 618.9 28.29999999999999 C 624.1 29.29999999999999 629.3 30.49999999999999 634.5 31.89999999999999 C 639.4 33.19999999999999 644 35.599999999999994 647.9 38.79999999999999 C 651.4 41.79999999999999 653.4 46.19999999999999 653.4 50.89999999999999 C 653.4 57.49999999999999 651.1 62.599999999999994 646.4 66.1 C 641.6999999999999 69.69999999999999 633.6999999999999 71.39999999999999 622.1999999999999 71.39999999999999 L 607 71.2 C 600.6 71.3 594.2 69.5 588.8 66 C 583.5 62.5 580.9 58.2 580.9 53 z" stroke-linecap="round" />
</g>
		<g transform="matrix(1 0 0 1 331.66 -38.5)" id="Path_4767"  >
<path style="stroke: none; stroke-width: 1; stroke-dasharray: none; stroke-linecap: butt; stroke-dashoffset: 0; stroke-linejoin: miter; stroke-miterlimit: 4; fill: rgb(0,0,0); fill-rule: nonzero; opacity: 1;" vector-effect="non-scaling-stroke"  transform=" translate(-696.2, -35.7)" d="M 663.3 66.4 L 663.3 5.1 C 663.3 3.8999999999999995 663.8 2.6999999999999997 664.6999999999999 1.8999999999999995 C 665.5999999999999 0.9999999999999994 666.6999999999999 0.5999999999999994 667.9 0.5999999999999994 L 724.6 0.5999999999999994 C 725.8000000000001 0.5999999999999994 727 1.0999999999999994 727.8000000000001 1.9999999999999993 C 728.7 2.8999999999999995 729.1 3.999999999999999 729.1 5.199999999999999 L 729.1 9.899999999999999 C 729.2 12.399999999999999 727.2 14.399999999999999 724.8000000000001 14.399999999999999 C 724.7 14.399999999999999 724.7 14.399999999999999 724.6 14.399999999999999 L 681.7 14.399999999999999 L 681.7 28.7 L 718.6 28.7 C 721.1 28.599999999999998 723.1 30.599999999999998 723.1 33 C 723.1 33.1 723.1 33.1 723.1 33.2 L 723.1 38 C 723.2 40.5 721.2 42.5 718.8000000000001 42.5 C 718.7 42.5 718.7 42.5 718.6 42.5 L 681.7 42.5 L 681.7 57.1 L 724.5 57.1 C 727 57 729 59 729 61.4 C 729 61.5 729 61.5 729 61.6 L 729 66.3 C 729 67.5 728.5 68.7 727.6 69.5 C 726.7 70.4 725.6 70.8 724.4 70.8 L 667.9 70.8 C 666.6999999999999 70.8 665.5 70.39999999999999 664.6999999999999 69.5 C 663.7 68.7 663.3 67.6 663.3 66.4 z" stroke-linecap="round" />
</g>
		<g transform="matrix(1 0 0 1 -208.35 -61.66)" id="Path_4768"  >
<path style="stroke: none; stroke-width: 1; stroke-dasharray: none; stroke-linecap: butt; stroke-dashoffset: 0; stroke-linejoin: miter; stroke-miterlimit: 4; fill: none; fill-rule: nonzero; opacity: 1;" vector-effect="non-scaling-stroke"  transform=" translate(-44.15, -12.15)" d="M 53.3 24.2 L 35 0 L 53.3 24.3 L 53.3 24.2 z" stroke-linecap="round" />
</g>
		<g transform="matrix(1 0 0 1 -217.1 -38.31)" id="Path_4769"  >
<path style="stroke: none; stroke-width: 1; stroke-dasharray: none; stroke-linecap: butt; stroke-dashoffset: 0; stroke-linejoin: miter; stroke-miterlimit: 4; fill: rgb(34,144,34); fill-rule: nonzero; opacity: 1;" vector-effect="non-scaling-stroke"  transform=" translate(-35.4, -35.5)" d="M 53.3 24.3 L 35 0 L 0 0 L 53.3 71 L 70.8 47.3 L 53.3 24.2 L 53.3 24.3 z" stroke-linecap="round" />
</g>
		<g transform="matrix(1 0 0 1 -172.6 -50.16)" id="Path_4770"  >
<path style="stroke: none; stroke-width: 1; stroke-dasharray: none; stroke-linecap: butt; stroke-dashoffset: 0; stroke-linejoin: miter; stroke-miterlimit: 4; fill: rgb(10,117,51); fill-rule: nonzero; opacity: 1;" vector-effect="non-scaling-stroke"  transform=" translate(-79.9, -23.65)" d="M 71.4 0 L 53.3 24.2 L 70.8 47.3 L 106.5 0 L 71.4 0 z" stroke-linecap="round" />
</g>
		<g transform="matrix(1 0 0 1 -188.75 -39.96)" id="Path_4771"  >
<path style="stroke: none; stroke-width: 1; stroke-dasharray: none; stroke-linecap: butt; stroke-dashoffset: 0; stroke-linejoin: miter; stroke-miterlimit: 4; fill: rgb(0,51,0); fill-rule: nonzero; opacity: 0.5;" vector-effect="non-scaling-stroke"  transform=" translate(-63.75, -33.85)" d="M 56.2 20.4 L 53.300000000000004 24.2 L 70.80000000000001 47.3 L 74.20000000000002 42.9 L 56.2 20.4 z" stroke-linecap="round" />
</g>
		<g transform="matrix(1 0 0 1 -199.14 26.34)" id="Path_4772"  >
<path style="stroke: none; stroke-width: 1; stroke-dasharray: none; stroke-linecap: butt; stroke-dashoffset: 0; stroke-linejoin: miter; stroke-miterlimit: 4; fill: rgb(12,176,74); fill-rule: nonzero; opacity: 1;" vector-effect="non-scaling-stroke"  transform=" translate(-38.15, -29.05)" d="M 38.1 23.3 C 34.9 23.3 32.300000000000004 25.900000000000002 32.300000000000004 29.1 C 32.300000000000004 29.1 32.300000000000004 29.1 32.300000000000004 29.1 L 32.300000000000004 34.800000000000004 L 44 34.800000000000004 L 44 29.100000000000005 C 43.9 25.9 41.4 23.3 38.1 23.3 C 38.1 23.3 38.1 23.3 38.1 23.3 z" stroke-linecap="round" />
</g>
		<g transform="matrix(1 0 0 1 -199.19 35.39)" id="Path_4773"  >
<path style="stroke: none; stroke-width: 1; stroke-dasharray: none; stroke-linecap: butt; stroke-dashoffset: 0; stroke-linejoin: miter; stroke-miterlimit: 4; fill: rgb(12,176,74); fill-rule: nonzero; opacity: 1;" vector-effect="non-scaling-stroke"  transform=" translate(-38.1, -38.1)" d="M 38.1 0 C 17.1 0 0 17.1 0 38.1 C 0 59.1 17.1 76.2 38.1 76.2 C 59.1 76.2 76.2 59.1 76.2 38.1 C 76.2 38.1 76.2 38.1 76.2 38.1 C 76.2 17.1 59.2 0 38.1 0 C 38.1 0 38.1 0 38.1 0 z M 54.6 54.1 C 54.6 56.5 52.7 58.4 50.300000000000004 58.4 L 25.9 58.4 C 23.5 58.4 21.599999999999998 56.5 21.599999999999998 54.1 L 21.599999999999998 39.4 C 21.599999999999998 37 23.499999999999996 35.1 25.9 35.1 L 26.599999999999998 35.1 L 26.599999999999998 29.400000000000002 C 26.599999999999998 23 31.799999999999997 17.800000000000004 38.199999999999996 17.800000000000004 C 44.599999999999994 17.800000000000004 49.8 23.000000000000004 49.8 29.400000000000006 L 49.8 35.10000000000001 L 50.4 35.10000000000001 C 52.699999999999996 35.00000000000001 54.6 36.80000000000001 54.699999999999996 39.10000000000001 C 54.699999999999996 39.20000000000001 54.699999999999996 39.30000000000001 54.699999999999996 39.400000000000006 L 54.6 54.1 L 54.6 54.1 z" stroke-linecap="round" />
</g>
		<g transform="matrix(1 0 0 1 -200.2 43.62)" id="Path_4774"  >
<path style="stroke: none; stroke-width: 1; stroke-dasharray: none; stroke-linecap: butt; stroke-dashoffset: 0; stroke-linejoin: miter; stroke-miterlimit: 4; fill: rgb(12,176,74); fill-rule: nonzero; opacity: 1;" vector-effect="non-scaling-stroke"  transform=" translate(-3.3, -7.2)" d="M 0.1 3.5 C 0 3.4 0 3.3 0 3.1 C 0 2.9 0.2 2.7 0.4 2.6 L 2.9 0.5 C 3.3 0.2 3.8 0 4.3 0 L 5.699999999999999 0 C 6.199999999999999 0 6.6 0.4 6.6 0.9 C 6.6 0.9 6.6 0.9 6.6 0.9 L 6.6 13.4 C 6.6 13.6 6.5 13.9 6.3 14.1 C 6 14.2 5.8999999999999995 14.4 5.6 14.4 L 3.9 14.4 C 3.4 14.4 3 14 3 13.5 C 3 13.5 3 13.5 3 13.5 L 3 3.6 L 1.8 4.5 C 1.7 4.7 1.6 4.7 1.3 4.7 C 1.2 4.7 1 4.5 0.9 4.4 L 0.1 3.5 z" stroke-linecap="round" />
</g>
		<g transform="matrix(1 0 0 1 -101.3 50.75)"  >
<path style="stroke: none; stroke-width: 1; stroke-dasharray: none; stroke-linecap: butt; stroke-dashoffset: 0; stroke-linejoin: miter; stroke-miterlimit: 4; fill: rgb(10,117,51); fill-rule: nonzero; opacity: 1;" vector-effect="non-scaling-stroke"  transform=" translate(-263.25, -124.95)" d="M 268 139.5 L 267.1 134.6 C 267.1 134.5 267.1 134.5 267 134.5 C 267 134.5 266.9 134.5 266.8 134.5 L 259.8 134.5 C 259.7 134.5 259.7 134.5 259.6 134.5 C 259.6 134.5 259.5 134.6 259.5 134.6 L 258.6 139.5 C 258.6 139.8 258.40000000000003 139.9 258.1 139.9 L 254.8 139.9 C 254.70000000000002 139.9 254.5 139.9 254.5 139.8 C 254.4 139.70000000000002 254.4 139.60000000000002 254.4 139.5 L 260.8 110.3 C 260.90000000000003 110 261 109.89999999999999 261.3 109.89999999999999 L 265.1 109.89999999999999 C 265.40000000000003 109.89999999999999 265.5 109.99999999999999 265.6 110.3 L 272.1 139.5 L 272.1 139.6 C 272.1 139.9 272 140 271.70000000000005 140 L 268.30000000000007 140 C 268.2 139.9 268 139.8 268 139.5 z M 260.5 131.1 L 266.2 131.1 C 266.3 131.1 266.3 131 266.3 130.9 L 263.40000000000003 115.60000000000001 C 263.40000000000003 115.50000000000001 263.3 115.50000000000001 263.3 115.50000000000001 C 263.3 115.50000000000001 263.2 115.50000000000001 263.2 115.60000000000001 L 260.3 130.9 C 260.3 131.1 260.4 131.1 260.5 131.1 z" stroke-linecap="round" />
</g>
		<g transform="matrix(1 0 0 1 -86.13 52.05)"  >
<path style="stroke: none; stroke-width: 1; stroke-dasharray: none; stroke-linecap: butt; stroke-dashoffset: 0; stroke-linejoin: miter; stroke-miterlimit: 4; fill: rgb(10,117,51); fill-rule: nonzero; opacity: 1;" vector-effect="non-scaling-stroke"  transform=" translate(-278.41, -126.25)" d="M 282.9 121 L 279.9 121 C 279.79999999999995 121 279.7 121.1 279.7 121.2 L 279.7 133.3 C 279.7 134.4 279.9 135.20000000000002 280.3 135.70000000000002 C 280.7 136.10000000000002 281.3 136.4 282.2 136.3 L 282.59999999999997 136.3 C 282.9 136.3 282.99999999999994 136.4 282.99999999999994 136.70000000000002 L 282.99999999999994 139.50000000000003 C 282.99999999999994 139.80000000000004 282.8999999999999 139.90000000000003 282.59999999999997 139.90000000000003 L 281.29999999999995 139.90000000000003 C 279.49999999999994 139.90000000000003 278.09999999999997 139.50000000000003 277.19999999999993 138.80000000000004 C 276.29999999999995 138.10000000000005 275.79999999999995 136.70000000000005 275.79999999999995 134.70000000000005 L 275.79999999999995 121.20000000000005 C 275.79999999999995 121.10000000000005 275.69999999999993 121.00000000000004 275.59999999999997 121.00000000000004 L 273.9 121.00000000000004 C 273.59999999999997 121.00000000000004 273.5 120.90000000000005 273.5 120.60000000000004 L 273.5 118.40000000000003 C 273.5 118.10000000000004 273.6 118.00000000000003 273.9 118.00000000000003 L 275.59999999999997 118.00000000000003 C 275.7 118.00000000000003 275.79999999999995 117.90000000000003 275.79999999999995 117.80000000000003 L 275.79999999999995 113 C 275.79999999999995 112.7 275.9 112.6 276.19999999999993 112.6 L 279.29999999999995 112.6 C 279.59999999999997 112.6 279.69999999999993 112.69999999999999 279.69999999999993 113 L 279.69999999999993 117.9 C 279.69999999999993 118 279.79999999999995 118.10000000000001 279.8999999999999 118.10000000000001 L 282.8999999999999 118.10000000000001 C 283.19999999999993 118.10000000000001 283.2999999999999 118.2 283.2999999999999 118.50000000000001 L 283.2999999999999 120.70000000000002 C 283.4 120.9 283.2 121 282.9 121 z" stroke-linecap="round" />
</g>
		<g transform="matrix(1 0 0 1 -74.25 52.05)"  >
<path style="stroke: none; stroke-width: 1; stroke-dasharray: none; stroke-linecap: butt; stroke-dashoffset: 0; stroke-linejoin: miter; stroke-miterlimit: 4; fill: rgb(10,117,51); fill-rule: nonzero; opacity: 1;" vector-effect="non-scaling-stroke"  transform=" translate(-290.3, -126.25)" d="M 294.8 121 L 291.8 121 C 291.7 121 291.6 121.1 291.6 121.2 L 291.6 133.3 C 291.6 134.4 291.8 135.20000000000002 292.20000000000005 135.70000000000002 C 292.6 136.10000000000002 293.20000000000005 136.4 294.1 136.3 L 294.5 136.3 C 294.8 136.3 294.9 136.4 294.9 136.70000000000002 L 294.9 139.50000000000003 C 294.9 139.80000000000004 294.79999999999995 139.90000000000003 294.5 139.90000000000003 L 293.2 139.90000000000003 C 291.4 139.90000000000003 290 139.50000000000003 289.09999999999997 138.80000000000004 C 288.2 138.10000000000005 287.7 136.70000000000005 287.7 134.70000000000005 L 287.7 121.20000000000005 C 287.7 121.10000000000005 287.59999999999997 121.00000000000004 287.5 121.00000000000004 L 285.8 121.00000000000004 C 285.5 121.00000000000004 285.40000000000003 120.90000000000005 285.40000000000003 120.60000000000004 L 285.40000000000003 118.40000000000003 C 285.40000000000003 118.10000000000004 285.50000000000006 118.00000000000003 285.8 118.00000000000003 L 287.5 118.00000000000003 C 287.6 118.00000000000003 287.7 117.90000000000003 287.7 117.80000000000003 L 287.7 113 C 287.7 112.7 287.8 112.6 288.09999999999997 112.6 L 291.2 112.6 C 291.5 112.6 291.59999999999997 112.69999999999999 291.59999999999997 113 L 291.59999999999997 117.9 C 291.59999999999997 118 291.7 118.10000000000001 291.79999999999995 118.10000000000001 L 294.79999999999995 118.10000000000001 C 295.09999999999997 118.10000000000001 295.19999999999993 118.2 295.19999999999993 118.50000000000001 L 295.19999999999993 120.70000000000002 C 295.2 120.9 295 121 294.8 121 z" stroke-linecap="round" />
</g>
		<g transform="matrix(1 0 0 1 -59.35 54.7)"  >
<path style="stroke: none; stroke-width: 1; stroke-dasharray: none; stroke-linecap: butt; stroke-dashoffset: 0; stroke-linejoin: miter; stroke-miterlimit: 4; fill: rgb(10,117,51); fill-rule: nonzero; opacity: 1;" vector-effect="non-scaling-stroke"  transform=" translate(-305.2, -128.9)" d="M 310.7 119.6 C 312 120.89999999999999 312.7 122.69999999999999 312.7 124.8 L 312.7 139.4 C 312.7 139.70000000000002 312.59999999999997 139.8 312.3 139.8 L 309 139.8 C 308.7 139.8 308.6 139.70000000000002 308.6 139.4 L 308.6 138.5 C 308.6 138.4 308.6 138.4 308.5 138.4 C 308.4 138.4 308.4 138.4 308.3 138.4 C 307.3 139.6 305.8 140.20000000000002 303.90000000000003 140.20000000000002 C 302.3 140.20000000000002 300.8 139.70000000000002 299.6 138.8 C 298.40000000000003 137.9 297.70000000000005 136.20000000000002 297.70000000000005 133.8 C 297.70000000000005 131.3 298.50000000000006 129.5 300.00000000000006 128.3 C 301.50000000000006 127.10000000000001 303.50000000000006 126.60000000000001 305.90000000000003 126.60000000000001 L 308.40000000000003 126.60000000000001 C 308.50000000000006 126.60000000000001 308.6 126.50000000000001 308.6 126.4 L 308.6 125.2 C 308.6 124 308.3 123 307.70000000000005 122.3 C 307.1 121.6 306.40000000000003 121.2 305.50000000000006 121.2 C 304.80000000000007 121.2 304.20000000000005 121.4 303.70000000000005 121.9 C 303.20000000000005 122.4 302.90000000000003 123 302.80000000000007 123.80000000000001 C 302.80000000000007 124.10000000000001 302.70000000000005 124.20000000000002 302.4000000000001 124.20000000000002 L 298.9000000000001 124.20000000000002 C 298.6000000000001 124.20000000000002 298.5000000000001 124.10000000000002 298.5000000000001 123.80000000000001 C 298.60000000000014 122.00000000000001 299.4000000000001 120.50000000000001 300.7000000000001 119.30000000000001 C 302.0000000000001 118.20000000000002 303.7000000000001 117.60000000000001 305.6000000000001 117.60000000000001 C 307.6 117.7 309.3 118.3 310.7 119.6 z M 307.4 135.7 C 308.09999999999997 135.1 308.5 134.2 308.5 133 L 308.5 130.1 C 308.5 130 308.4 129.9 308.3 129.9 L 305.7 129.9 C 304.59999999999997 129.9 303.59999999999997 130.20000000000002 302.9 130.8 C 302.2 131.4 301.9 132.3 301.9 133.5 C 301.9 134.5 302.2 135.3 302.7 135.8 C 303.2 136.3 303.9 136.60000000000002 304.8 136.60000000000002 C 305.8 136.6 306.7 136.3 307.4 135.7 z" stroke-linecap="round" />
</g>
		<g transform="matrix(1 0 0 1 -41 54.75)"  >
<path style="stroke: none; stroke-width: 1; stroke-dasharray: none; stroke-linecap: butt; stroke-dashoffset: 0; stroke-linejoin: miter; stroke-miterlimit: 4; fill: rgb(10,117,51); fill-rule: nonzero; opacity: 1;" vector-effect="non-scaling-stroke"  transform=" translate(-323.55, -128.95)" d="M 318.3 138.4 C 317 137.20000000000002 316.3 135.5 316.3 133.4 L 316.3 124.5 C 316.3 122.5 317 120.8 318.3 119.6 C 319.6 118.3 321.40000000000003 117.69999999999999 323.6 117.69999999999999 C 325.1 117.69999999999999 326.3 117.99999999999999 327.40000000000003 118.49999999999999 C 328.50000000000006 119.09999999999998 329.3 119.79999999999998 329.90000000000003 120.79999999999998 C 330.50000000000006 121.79999999999998 330.8 122.79999999999998 330.8 123.99999999999999 L 330.8 124.59999999999998 C 330.8 124.89999999999998 330.7 124.99999999999999 330.40000000000003 124.99999999999999 L 327.1 125.09999999999998 C 326.8 125.09999999999998 326.70000000000005 124.99999999999999 326.70000000000005 124.69999999999997 L 326.70000000000005 124.29999999999997 C 326.70000000000005 123.49999999999997 326.40000000000003 122.79999999999997 325.80000000000007 122.19999999999997 C 325.20000000000005 121.59999999999998 324.50000000000006 121.29999999999997 323.6000000000001 121.29999999999997 C 322.7000000000001 121.29999999999997 321.9000000000001 121.59999999999997 321.4000000000001 122.29999999999997 C 320.80000000000007 122.99999999999997 320.5000000000001 123.79999999999997 320.5000000000001 124.79999999999997 L 320.5000000000001 133.19999999999996 C 320.5000000000001 134.19999999999996 320.8000000000001 135.09999999999997 321.4000000000001 135.69999999999996 C 322.0000000000001 136.39999999999995 322.7000000000001 136.69999999999996 323.6000000000001 136.69999999999996 C 324.50000000000006 136.69999999999996 325.2000000000001 136.39999999999995 325.80000000000007 135.79999999999995 C 326.4000000000001 135.19999999999996 326.70000000000005 134.49999999999994 326.70000000000005 133.59999999999997 L 326.70000000000005 133.19999999999996 C 326.70000000000005 132.89999999999995 326.80000000000007 132.79999999999995 327.1 132.79999999999995 L 330.40000000000003 132.79999999999995 C 330.70000000000005 132.79999999999995 330.8 132.89999999999995 330.8 133.19999999999996 L 330.8 133.79999999999995 C 330.8 135.69999999999996 330.1 137.19999999999996 328.8 138.39999999999995 C 327.5 139.59999999999994 325.7 140.19999999999996 323.5 140.19999999999996 C 321.4 140.2 319.6 139.6 318.3 138.4 z" stroke-linecap="round" />
</g>
		<g transform="matrix(1 0 0 1 -22.65 50.8)"  >
<path style="stroke: none; stroke-width: 1; stroke-dasharray: none; stroke-linecap: butt; stroke-dashoffset: 0; stroke-linejoin: miter; stroke-miterlimit: 4; fill: rgb(10,117,51); fill-rule: nonzero; opacity: 1;" vector-effect="non-scaling-stroke"  transform=" translate(-341.9, -125)" d="M 334.5 139.5 L 334.5 110.3 C 334.5 110 334.6 109.89999999999999 334.9 109.89999999999999 L 338.2 109.89999999999999 C 338.5 109.89999999999999 338.59999999999997 109.99999999999999 338.59999999999997 110.3 L 338.59999999999997 126.6 C 338.59999999999997 126.69999999999999 338.59999999999997 126.69999999999999 338.7 126.8 C 338.8 126.8 338.8 126.8 338.8 126.7 L 344.3 118.4 C 344.40000000000003 118.2 344.6 118.10000000000001 344.8 118.10000000000001 L 348.2 118.10000000000001 C 348.4 118.10000000000001 348.5 118.10000000000001 348.5 118.30000000000001 C 348.6 118.4 348.5 118.50000000000001 348.5 118.70000000000002 L 344.1 125.20000000000002 C 344 125.30000000000001 344 125.40000000000002 344.1 125.50000000000001 L 349.3 139.60000000000002 L 349.3 139.8 C 349.3 140 349.2 140.10000000000002 348.90000000000003 140.10000000000002 L 345.50000000000006 140.10000000000002 C 345.20000000000005 140.10000000000002 345.1000000000001 140.00000000000003 345.00000000000006 139.8 L 341.6000000000001 129 C 341.6000000000001 128.8 341.50000000000006 128.8 341.30000000000007 129 L 338.70000000000005 132.7 C 338.6 132.79999999999998 338.6 132.79999999999998 338.6 132.89999999999998 L 338.6 139.7 C 338.6 140 338.5 140.1 338.20000000000005 140.1 L 334.90000000000003 140.1 C 334.6 139.9 334.5 139.7 334.5 139.5 z" stroke-linecap="round" />
</g>
		<g transform="matrix(1 0 0 1 -8.65 52.05)"  >
<path style="stroke: none; stroke-width: 1; stroke-dasharray: none; stroke-linecap: butt; stroke-dashoffset: 0; stroke-linejoin: miter; stroke-miterlimit: 4; fill: rgb(10,117,51); fill-rule: nonzero; opacity: 1;" vector-effect="non-scaling-stroke"  transform=" translate(-355.9, -126.25)" d="M 360.4 121 L 357.4 121 C 357.29999999999995 121 357.2 121.1 357.2 121.2 L 357.2 133.3 C 357.2 134.4 357.4 135.20000000000002 357.8 135.70000000000002 C 358.2 136.10000000000002 358.8 136.4 359.7 136.3 L 360.09999999999997 136.3 C 360.4 136.3 360.49999999999994 136.4 360.49999999999994 136.70000000000002 L 360.49999999999994 139.50000000000003 C 360.49999999999994 139.80000000000004 360.3999999999999 139.90000000000003 360.09999999999997 139.90000000000003 L 358.79999999999995 139.90000000000003 C 356.99999999999994 139.90000000000003 355.59999999999997 139.50000000000003 354.69999999999993 138.80000000000004 C 353.79999999999995 138.10000000000005 353.29999999999995 136.70000000000005 353.29999999999995 134.70000000000005 L 353.29999999999995 121.20000000000005 C 353.29999999999995 121.10000000000005 353.19999999999993 121.00000000000004 353.09999999999997 121.00000000000004 L 351.4 121.00000000000004 C 351.09999999999997 121.00000000000004 351 120.90000000000005 351 120.60000000000004 L 351 118.40000000000003 C 351 118.10000000000004 351.1 118.00000000000003 351.4 118.00000000000003 L 353.09999999999997 118.00000000000003 C 353.2 118.00000000000003 353.29999999999995 117.90000000000003 353.29999999999995 117.80000000000003 L 353.29999999999995 113 C 353.29999999999995 112.7 353.4 112.6 353.69999999999993 112.6 L 356.79999999999995 112.6 C 357.09999999999997 112.6 357.19999999999993 112.69999999999999 357.19999999999993 113 L 357.19999999999993 117.9 C 357.19999999999993 118 357.29999999999995 118.10000000000001 357.3999999999999 118.10000000000001 L 360.3999999999999 118.10000000000001 C 360.69999999999993 118.10000000000001 360.7999999999999 118.2 360.7999999999999 118.50000000000001 L 360.7999999999999 120.70000000000002 C 360.8 120.9 360.7 121 360.4 121 z" stroke-linecap="round" />
</g>
		<g transform="matrix(1 0 0 1 1.85 50.25)"  >
<path style="stroke: none; stroke-width: 1; stroke-dasharray: none; stroke-linecap: butt; stroke-dashoffset: 0; stroke-linejoin: miter; stroke-miterlimit: 4; fill: rgb(10,117,51); fill-rule: nonzero; opacity: 1;" vector-effect="non-scaling-stroke"  transform=" translate(-366.4, -124.45)" d="M 364.4 113.8 C 363.9 113.3 363.59999999999997 112.6 363.59999999999997 111.8 C 363.59999999999997 111 363.9 110.3 364.4 109.8 C 364.9 109.3 365.59999999999997 109 366.4 109 C 367.2 109 367.9 109.3 368.4 109.8 C 368.9 110.3 369.2 111 369.2 111.8 C 369.2 112.6 368.9 113.3 368.4 113.8 C 367.9 114.3 367.2 114.6 366.4 114.6 C 365.6 114.6 364.9 114.3 364.4 113.8 z M 364.3 139.5 L 364.3 118.5 C 364.3 118.2 364.40000000000003 118.1 364.7 118.1 L 368 118.1 C 368.3 118.1 368.4 118.19999999999999 368.4 118.5 L 368.4 139.5 C 368.4 139.8 368.29999999999995 139.9 368 139.9 L 364.7 139.9 C 364.5 139.9 364.3 139.7 364.3 139.5 z" stroke-linecap="round" />
</g>
		<g transform="matrix(1 0 0 1 15.5 54.75)"  >
<path style="stroke: none; stroke-width: 1; stroke-dasharray: none; stroke-linecap: butt; stroke-dashoffset: 0; stroke-linejoin: miter; stroke-miterlimit: 4; fill: rgb(10,117,51); fill-rule: nonzero; opacity: 1;" vector-effect="non-scaling-stroke"  transform=" translate(-380.05, -128.95)" d="M 374.8 138.4 C 373.5 137.20000000000002 372.8 135.5 372.8 133.4 L 372.8 124.5 C 372.8 122.5 373.5 120.8 374.8 119.6 C 376.1 118.3 377.90000000000003 117.69999999999999 380.1 117.69999999999999 C 381.6 117.69999999999999 382.8 117.99999999999999 383.90000000000003 118.49999999999999 C 385.00000000000006 118.99999999999999 385.8 119.79999999999998 386.40000000000003 120.79999999999998 C 387.00000000000006 121.79999999999998 387.3 122.79999999999998 387.3 123.99999999999999 L 387.3 124.59999999999998 C 387.3 124.89999999999998 387.2 124.99999999999999 386.90000000000003 124.99999999999999 L 383.6 125.09999999999998 C 383.3 125.09999999999998 383.20000000000005 124.99999999999999 383.20000000000005 124.69999999999997 L 383.20000000000005 124.29999999999997 C 383.20000000000005 123.49999999999997 382.90000000000003 122.79999999999997 382.30000000000007 122.19999999999997 C 381.70000000000005 121.59999999999998 381.00000000000006 121.29999999999997 380.1000000000001 121.29999999999997 C 379.2000000000001 121.29999999999997 378.4000000000001 121.59999999999997 377.9000000000001 122.29999999999997 C 377.30000000000007 122.99999999999997 377.0000000000001 123.79999999999997 377.0000000000001 124.79999999999997 L 377.0000000000001 133.19999999999996 C 377.0000000000001 134.19999999999996 377.3000000000001 135.09999999999997 377.9000000000001 135.69999999999996 C 378.5000000000001 136.39999999999995 379.2000000000001 136.69999999999996 380.1000000000001 136.69999999999996 C 381.00000000000006 136.69999999999996 381.7000000000001 136.39999999999995 382.30000000000007 135.79999999999995 C 382.9000000000001 135.19999999999996 383.20000000000005 134.49999999999994 383.20000000000005 133.59999999999997 L 383.20000000000005 133.19999999999996 C 383.20000000000005 132.89999999999995 383.30000000000007 132.79999999999995 383.6 132.79999999999995 L 386.90000000000003 132.79999999999995 C 387.20000000000005 132.79999999999995 387.3 132.89999999999995 387.3 133.19999999999996 L 387.3 133.79999999999995 C 387.3 135.69999999999996 386.6 137.19999999999996 385.3 138.39999999999995 C 384 139.59999999999994 382.2 140.19999999999996 380 140.19999999999996 C 377.8 140.2 376.1 139.6 374.8 138.4 z" stroke-linecap="round" />
</g>
		<g transform="matrix(1 0 0 1 33.05 54.7)"  >
<path style="stroke: none; stroke-width: 1; stroke-dasharray: none; stroke-linecap: butt; stroke-dashoffset: 0; stroke-linejoin: miter; stroke-miterlimit: 4; fill: rgb(10,117,51); fill-rule: nonzero; opacity: 1;" vector-effect="non-scaling-stroke"  transform=" translate(-397.6, -128.9)" d="M 403.1 119.6 C 404.40000000000003 120.89999999999999 405.1 122.69999999999999 405.1 124.8 L 405.1 139.4 C 405.1 139.70000000000002 405 139.8 404.70000000000005 139.8 L 401.40000000000003 139.8 C 401.1 139.8 401.00000000000006 139.70000000000002 401.00000000000006 139.4 L 401.00000000000006 138.5 C 401.00000000000006 138.4 401.00000000000006 138.4 400.90000000000003 138.4 C 400.8 138.4 400.8 138.4 400.70000000000005 138.4 C 399.70000000000005 139.6 398.20000000000005 140.20000000000002 396.30000000000007 140.20000000000002 C 394.70000000000005 140.20000000000002 393.20000000000005 139.70000000000002 392.00000000000006 138.8 C 390.80000000000007 137.9 390.1000000000001 136.20000000000002 390.1000000000001 133.8 C 390.1000000000001 131.3 390.9000000000001 129.5 392.4000000000001 128.3 C 393.9000000000001 127.10000000000001 395.9000000000001 126.60000000000001 398.30000000000007 126.60000000000001 L 400.80000000000007 126.60000000000001 C 400.9000000000001 126.60000000000001 401.00000000000006 126.50000000000001 401.00000000000006 126.4 L 401.00000000000006 125.2 C 401.00000000000006 124 400.70000000000005 123 400.1000000000001 122.3 C 399.50000000000006 121.6 398.80000000000007 121.2 397.9000000000001 121.2 C 397.2000000000001 121.2 396.6000000000001 121.4 396.1000000000001 121.9 C 395.6000000000001 122.4 395.30000000000007 123 395.2000000000001 123.80000000000001 C 395.2000000000001 124.10000000000001 395.1000000000001 124.20000000000002 394.8000000000001 124.20000000000002 L 391.3000000000001 124.20000000000002 C 391.0000000000001 124.20000000000002 390.90000000000015 124.10000000000002 390.90000000000015 123.80000000000001 C 391.00000000000017 122.00000000000001 391.8000000000001 120.50000000000001 393.10000000000014 119.30000000000001 C 394.40000000000015 118.20000000000002 396.10000000000014 117.60000000000001 398.0000000000001 117.60000000000001 C 400.1 117.7 401.8 118.3 403.1 119.6 z M 399.9 135.7 C 400.59999999999997 135.1 401 134.2 401 133 L 401 130.1 C 401 130 400.9 129.9 400.8 129.9 L 398.2 129.9 C 397.09999999999997 129.9 396.09999999999997 130.20000000000002 395.4 130.8 C 394.7 131.4 394.4 132.3 394.4 133.5 C 394.4 134.5 394.7 135.3 395.2 135.8 C 395.7 136.3 396.4 136.60000000000002 397.3 136.60000000000002 C 398.3 136.6 399.2 136.3 399.9 135.7 z" stroke-linecap="round" />
</g>
		<g transform="matrix(1 0 0 1 46.6 50.7)"  >
<path style="stroke: none; stroke-width: 1; stroke-dasharray: none; stroke-linecap: butt; stroke-dashoffset: 0; stroke-linejoin: miter; stroke-miterlimit: 4; fill: rgb(10,117,51); fill-rule: nonzero; opacity: 1;" vector-effect="non-scaling-stroke"  transform=" translate(-411.15, -124.9)" d="M 409.1 139.5 L 409.1 110.3 C 409.1 110 409.20000000000005 109.89999999999999 409.5 109.89999999999999 L 412.8 109.89999999999999 C 413.1 109.89999999999999 413.2 109.99999999999999 413.2 110.3 L 413.2 139.5 C 413.2 139.8 413.09999999999997 139.9 412.8 139.9 L 409.5 139.9 C 409.2 139.9 409.1 139.7 409.1 139.5 z" stroke-linecap="round" />
</g>
		<g transform="matrix(1 0 0 1 69.1 50.6)"  >
<path style="stroke: none; stroke-width: 1; stroke-dasharray: none; stroke-linecap: butt; stroke-dashoffset: 0; stroke-linejoin: miter; stroke-miterlimit: 4; fill: rgb(10,117,51); fill-rule: nonzero; opacity: 1;" vector-effect="non-scaling-stroke"  transform=" translate(-433.65, -124.8)" d="M 428 138.1 C 426.6 136.7 425.9 134.79999999999998 425.9 132.4 L 425.9 117.10000000000001 C 425.9 114.7 426.59999999999997 112.9 428 111.50000000000001 C 429.4 110.10000000000001 431.3 109.40000000000002 433.6 109.40000000000002 C 435.90000000000003 109.40000000000002 437.8 110.10000000000002 439.3 111.50000000000001 C 440.7 112.90000000000002 441.40000000000003 114.80000000000001 441.40000000000003 117.10000000000001 L 441.40000000000003 117.80000000000001 C 441.40000000000003 118.10000000000001 441.3 118.20000000000002 441.00000000000006 118.20000000000002 L 437.70000000000005 118.40000000000002 C 437.40000000000003 118.40000000000002 437.30000000000007 118.30000000000003 437.30000000000007 118.00000000000001 L 437.30000000000007 116.90000000000002 C 437.30000000000007 115.70000000000002 437.00000000000006 114.80000000000003 436.30000000000007 114.10000000000002 C 435.6000000000001 113.40000000000002 434.70000000000005 113.00000000000003 433.70000000000005 113.00000000000003 C 432.6 113.00000000000003 431.70000000000005 113.40000000000003 431.1 114.10000000000002 C 430.40000000000003 114.80000000000003 430.1 115.80000000000003 430.1 116.90000000000002 L 430.1 132.70000000000002 C 430.1 133.9 430.40000000000003 134.8 431.1 135.50000000000003 C 431.8 136.20000000000002 432.6 136.60000000000002 433.70000000000005 136.60000000000002 C 434.80000000000007 136.60000000000002 435.70000000000005 136.20000000000002 436.30000000000007 135.50000000000003 C 437.00000000000006 134.80000000000004 437.30000000000007 133.80000000000004 437.30000000000007 132.70000000000002 L 437.30000000000007 131.60000000000002 C 437.30000000000007 131.3 437.4000000000001 131.20000000000002 437.70000000000005 131.20000000000002 L 441.00000000000006 131.4 C 441.30000000000007 131.4 441.40000000000003 131.5 441.40000000000003 131.8 L 441.40000000000003 132.4 C 441.40000000000003 134.8 440.70000000000005 136.6 439.3 138.1 C 437.9 139.6 436 140.2 433.6 140.2 C 431.3 140.2 429.4 139.5 428 138.1 z" stroke-linecap="round" />
</g>
		<g transform="matrix(1 0 0 1 86.89 59.15)"  >
<path style="stroke: none; stroke-width: 1; stroke-dasharray: none; stroke-linecap: butt; stroke-dashoffset: 0; stroke-linejoin: miter; stroke-miterlimit: 4; fill: rgb(10,117,51); fill-rule: nonzero; opacity: 1;" vector-effect="non-scaling-stroke"  transform=" translate(-451.44, -133.35)" d="M 444.7 148.3 C 444.59999999999997 148.20000000000002 444.59999999999997 148.10000000000002 444.59999999999997 148 L 444.59999999999997 145.5 C 444.59999999999997 145.2 444.7 145.1 444.99999999999994 145.1 C 445.8999999999999 145.1 446.59999999999997 144.9 447.19999999999993 144.7 C 447.69999999999993 144.39999999999998 448.19999999999993 144 448.49999999999994 143.2 C 448.79999999999995 142.5 449.09999999999997 141.39999999999998 449.29999999999995 140.1 L 449.29999999999995 139.9 L 443.79999999999995 118.60000000000001 L 443.79999999999995 118.50000000000001 C 443.79999999999995 118.30000000000001 443.9 118.20000000000002 444.19999999999993 118.20000000000002 L 447.69999999999993 118.20000000000002 C 447.99999999999994 118.20000000000002 448.0999999999999 118.30000000000001 448.19999999999993 118.60000000000002 L 451.29999999999995 134.10000000000002 C 451.29999999999995 134.20000000000002 451.4 134.20000000000002 451.4 134.20000000000002 C 451.4 134.20000000000002 451.5 134.20000000000002 451.5 134.10000000000002 L 454.6 118.60000000000002 C 454.70000000000005 118.30000000000003 454.8 118.20000000000002 455.1 118.20000000000002 L 458.70000000000005 118.20000000000002 C 458.80000000000007 118.20000000000002 459.00000000000006 118.20000000000002 459.00000000000006 118.30000000000001 C 459.1000000000001 118.4 459.1000000000001 118.50000000000001 459.00000000000006 118.60000000000001 L 453.1000000000001 141.5 C 452.6000000000001 143.5 452.00000000000006 144.9 451.50000000000006 145.9 C 451.00000000000006 146.9 450.20000000000005 147.5 449.20000000000005 147.9 C 448.20000000000005 148.3 446.90000000000003 148.5 445.1 148.5 L 444.90000000000003 148.5 C 444.8 148.4 444.8 148.4 444.7 148.3 z" stroke-linecap="round" />
</g>
		<g transform="matrix(1 0 0 1 104.45 50.8)"  >
<path style="stroke: none; stroke-width: 1; stroke-dasharray: none; stroke-linecap: butt; stroke-dashoffset: 0; stroke-linejoin: miter; stroke-miterlimit: 4; fill: rgb(10,117,51); fill-rule: nonzero; opacity: 1;" vector-effect="non-scaling-stroke"  transform=" translate(-469, -125)" d="M 474.7 119.5 C 475.8 120.7 476.3 122.4 476.3 124.5 L 476.3 133.4 C 476.3 135.4 475.7 137.1 474.6 138.3 C 473.50000000000006 139.50000000000003 472 140.20000000000002 470.1 140.20000000000002 C 469.40000000000003 140.20000000000002 468.70000000000005 140.10000000000002 468 139.8 C 467.3 139.5 466.7 139.20000000000002 466.1 138.60000000000002 C 466 138.50000000000003 466 138.50000000000003 465.90000000000003 138.60000000000002 C 465.90000000000003 138.60000000000002 465.8 138.70000000000002 465.8 138.70000000000002 L 465.8 139.4 C 465.8 139.70000000000002 465.7 139.8 465.40000000000003 139.8 L 462.1 139.8 C 461.8 139.8 461.70000000000005 139.70000000000002 461.70000000000005 139.4 L 461.70000000000005 110.2 C 461.70000000000005 109.9 461.80000000000007 109.8 462.1 109.8 L 465.40000000000003 109.8 C 465.70000000000005 109.8 465.8 109.89999999999999 465.8 110.2 L 465.8 119.10000000000001 C 465.8 119.2 465.8 119.2 465.90000000000003 119.2 C 466.00000000000006 119.2 466.00000000000006 119.2 466.1 119.10000000000001 C 467.20000000000005 118.10000000000001 468.5 117.60000000000001 470 117.60000000000001 C 472.1 117.7 473.6 118.3 474.7 119.5 z M 471.4 122.2 C 470.79999999999995 121.5 470.09999999999997 121.2 469.09999999999997 121.2 C 468.2 121.2 467.49999999999994 121.5 466.9 122.2 C 466.3 122.9 466 123.7 466 124.7 L 466 133.1 C 466 134.1 466.3 135 466.9 135.6 C 467.49999999999994 136.2 468.2 136.6 469.09999999999997 136.6 C 469.99999999999994 136.6 470.79999999999995 136.29999999999998 471.4 135.6 C 472 134.9 472.29999999999995 134.1 472.29999999999995 133.1 L 472.29999999999995 124.69999999999999 C 472.3 123.7 472 122.9 471.4 122.2 z" stroke-linecap="round" />
</g>
		<g transform="matrix(1 0 0 1 122.7 54.9)"  >
<path style="stroke: none; stroke-width: 1; stroke-dasharray: none; stroke-linecap: butt; stroke-dashoffset: 0; stroke-linejoin: miter; stroke-miterlimit: 4; fill: rgb(10,117,51); fill-rule: nonzero; opacity: 1;" vector-effect="non-scaling-stroke"  transform=" translate(-487.25, -129.1)" d="M 494.1 130.6 L 484.40000000000003 130.6 C 484.3 130.6 484.20000000000005 130.7 484.20000000000005 130.79999999999998 L 484.20000000000005 133.1 C 484.20000000000005 134.1 484.50000000000006 135 485.1 135.6 C 485.70000000000005 136.29999999999998 486.40000000000003 136.6 487.3 136.6 C 488.1 136.6 488.8 136.4 489.3 135.9 C 489.8 135.4 490.2 134.8 490.3 134 C 490.40000000000003 133.8 490.5 133.7 490.8 133.7 L 494 133.89999999999998 C 494.1 133.89999999999998 494.3 133.89999999999998 494.3 133.99999999999997 C 494.40000000000003 134.09999999999997 494.40000000000003 134.19999999999996 494.40000000000003 134.29999999999998 C 494.20000000000005 136.2 493.50000000000006 137.6 492.3 138.7 C 491.1 139.7 489.40000000000003 140.29999999999998 487.3 140.29999999999998 C 485.1 140.29999999999998 483.3 139.7 482 138.49999999999997 C 480.7 137.29999999999998 480 135.59999999999997 480 133.59999999999997 L 480 124.69999999999996 C 480 122.69999999999996 480.7 120.99999999999996 482 119.79999999999995 C 483.3 118.49999999999996 485.1 117.89999999999995 487.3 117.89999999999995 C 489.5 117.89999999999995 491.3 118.49999999999994 492.6 119.79999999999995 C 493.90000000000003 121.09999999999997 494.5 122.69999999999996 494.5 124.69999999999996 L 494.5 130.39999999999995 C 494.5 130.5 494.4 130.6 494.1 130.6 z M 485.1 122.2 C 484.5 122.9 484.20000000000005 123.7 484.20000000000005 124.7 L 484.20000000000005 127 C 484.20000000000005 127.1 484.30000000000007 127.2 484.40000000000003 127.2 L 490.3 127.2 C 490.40000000000003 127.2 490.5 127.10000000000001 490.5 127 L 490.5 124.7 C 490.5 123.7 490.2 122.8 489.6 122.2 C 489.00000000000006 121.60000000000001 488.3 121.2 487.3 121.2 C 486.4 121.2 485.7 121.6 485.1 122.2 z" stroke-linecap="round" />
</g>
		<g transform="matrix(1 0 0 1 139.12 54.81)"  >
<path style="stroke: none; stroke-width: 1; stroke-dasharray: none; stroke-linecap: butt; stroke-dashoffset: 0; stroke-linejoin: miter; stroke-miterlimit: 4; fill: rgb(10,117,51); fill-rule: nonzero; opacity: 1;" vector-effect="non-scaling-stroke"  transform=" translate(-503.67, -129.01)" d="M 508.6 118.3 C 508.8 118.39999999999999 508.90000000000003 118.6 508.8 118.89999999999999 L 508.2 122.19999999999999 C 508.2 122.49999999999999 508 122.49999999999999 507.7 122.49999999999999 C 507.3 122.39999999999999 506.9 122.29999999999998 506.5 122.29999999999998 C 506.3 122.29999999999998 506.1 122.29999999999998 505.7 122.39999999999998 C 504.8 122.49999999999997 504.09999999999997 122.99999999999997 503.5 123.89999999999998 C 502.9 124.79999999999998 502.6 125.89999999999998 502.6 127.09999999999998 L 502.6 139.7 C 502.6 140 502.5 140.1 502.20000000000005 140.1 L 498.90000000000003 140.1 C 498.6 140.1 498.50000000000006 140 498.50000000000006 139.7 L 498.50000000000006 118.69999999999999 C 498.50000000000006 118.39999999999999 498.6000000000001 118.29999999999998 498.90000000000003 118.29999999999998 L 502.20000000000005 118.29999999999998 C 502.50000000000006 118.29999999999998 502.6 118.39999999999998 502.6 118.69999999999999 L 502.6 121.19999999999999 C 502.6 121.29999999999998 502.6 121.29999999999998 502.70000000000005 121.39999999999999 C 502.70000000000005 121.39999999999999 502.80000000000007 121.39999999999999 502.80000000000007 121.3 C 503.6000000000001 119.2 505.00000000000006 118.1 506.80000000000007 118.1 C 507.4 117.8 508 117.9 508.6 118.3 z" stroke-linecap="round" />
</g>
		<g transform="matrix(1 0 0 1 153 54.8)"  >
<path style="stroke: none; stroke-width: 1; stroke-dasharray: none; stroke-linecap: butt; stroke-dashoffset: 0; stroke-linejoin: miter; stroke-miterlimit: 4; fill: rgb(10,117,51); fill-rule: nonzero; opacity: 1;" vector-effect="non-scaling-stroke"  transform=" translate(-517.55, -129)" d="M 512.6 138.6 C 511.40000000000003 137.6 510.70000000000005 136.1 510.70000000000005 134.4 L 510.70000000000005 134 C 510.70000000000005 133.7 510.80000000000007 133.6 511.1 133.6 L 514.2 133.6 C 514.5 133.6 514.6 133.7 514.6 134 L 514.6 134.3 C 514.6 135.10000000000002 514.9 135.70000000000002 515.5 136.3 C 516.1 136.8 516.8 137.10000000000002 517.7 137.10000000000002 C 518.6 137.10000000000002 519.3000000000001 136.8 519.8000000000001 136.3 C 520.3000000000001 135.8 520.6 135.10000000000002 520.6 134.3 C 520.6 133.70000000000002 520.4 133.10000000000002 520 132.70000000000002 C 519.6 132.3 519.2 131.9 518.7 131.70000000000002 C 518.2 131.50000000000003 517.4000000000001 131.10000000000002 516.4000000000001 130.70000000000002 C 515.3000000000001 130.20000000000002 514.4000000000001 129.70000000000002 513.6000000000001 129.3 C 512.9000000000001 128.8 512.2000000000002 128.20000000000002 511.60000000000014 127.30000000000001 C 511.0000000000001 126.4 510.70000000000016 125.4 510.70000000000016 124.00000000000001 C 510.70000000000016 122.10000000000001 511.3000000000002 120.50000000000001 512.5000000000001 119.40000000000002 C 513.7000000000002 118.30000000000003 515.4000000000001 117.80000000000003 517.4000000000001 117.80000000000003 C 519.5000000000001 117.80000000000003 521.2 118.40000000000002 522.4000000000001 119.50000000000003 C 523.6000000000001 120.60000000000002 524.2 122.10000000000002 524.2 124.10000000000002 L 524.2 124.20000000000002 C 524.2 124.50000000000001 524.1 124.60000000000002 523.8000000000001 124.60000000000002 L 520.8000000000001 124.60000000000002 C 520.5000000000001 124.60000000000002 520.4000000000001 124.50000000000003 520.4000000000001 124.20000000000002 L 520.4000000000001 123.90000000000002 C 520.4000000000001 123.10000000000002 520.1000000000001 122.50000000000001 519.6000000000001 121.90000000000002 C 519.1000000000001 121.40000000000002 518.4000000000001 121.10000000000002 517.5000000000001 121.10000000000002 C 516.6000000000001 121.10000000000002 515.9000000000001 121.40000000000002 515.4000000000001 121.90000000000002 C 514.9000000000001 122.40000000000002 514.6000000000001 123.10000000000002 514.6000000000001 123.90000000000002 C 514.6000000000001 124.50000000000001 514.8000000000002 125.00000000000001 515.1000000000001 125.40000000000002 C 515.4000000000001 125.80000000000003 515.9000000000001 126.10000000000002 516.3000000000002 126.40000000000002 C 516.8000000000002 126.60000000000002 517.6000000000001 127.00000000000001 518.6000000000001 127.50000000000001 C 519.8000000000002 128 520.8000000000002 128.5 521.5000000000001 129 C 522.3000000000001 129.5 523.0000000000001 130.1 523.5000000000001 131 C 524.1000000000001 131.9 524.4000000000001 132.9 524.4000000000001 134.2 C 524.4000000000001 136.1 523.8000000000001 137.5 522.5000000000001 138.6 C 521.2000000000002 139.7 519.5000000000001 140.2 517.3000000000001 140.2 C 515.6 140.2 513.9 139.6 512.6 138.6 z" stroke-linecap="round" />
</g>
		<g transform="matrix(1 0 0 1 170.32 54.9)"  >
<path style="stroke: none; stroke-width: 1; stroke-dasharray: none; stroke-linecap: butt; stroke-dashoffset: 0; stroke-linejoin: miter; stroke-miterlimit: 4; fill: rgb(10,117,51); fill-rule: nonzero; opacity: 1;" vector-effect="non-scaling-stroke"  transform=" translate(-534.86, -129.1)" d="M 541.8 130.6 L 532 130.6 C 531.9 130.6 531.8 130.7 531.8 130.79999999999998 L 531.8 133.1 C 531.8 134.1 532.0999999999999 135 532.6999999999999 135.6 C 533.3 136.29999999999998 533.9999999999999 136.6 534.9 136.6 C 535.6999999999999 136.6 536.4 136.4 536.9 135.9 C 537.4 135.4 537.8 134.8 537.9 134 C 538 133.8 538.1 133.7 538.4 133.7 L 541.6 133.89999999999998 C 541.7 133.89999999999998 541.9 133.89999999999998 541.9 133.99999999999997 C 541.9 134.09999999999997 542 134.19999999999996 542 134.29999999999998 C 541.8 136.2 541.1 137.6 539.9 138.7 C 538.6999999999999 139.7 537 140.29999999999998 534.9 140.29999999999998 C 532.6999999999999 140.29999999999998 530.9 139.7 529.6 138.49999999999997 C 528.3000000000001 137.29999999999998 527.6 135.59999999999997 527.6 133.59999999999997 L 527.6 124.69999999999996 C 527.6 122.69999999999996 528.3000000000001 120.99999999999996 529.6 119.79999999999995 C 530.9 118.49999999999996 532.7 117.89999999999995 534.9 117.89999999999995 C 537.1 117.89999999999995 538.9 118.49999999999994 540.1999999999999 119.79999999999995 C 541.4999999999999 121.09999999999995 542.0999999999999 122.69999999999996 542.0999999999999 124.69999999999996 L 542.0999999999999 130.39999999999995 C 542.2 130.5 542 130.6 541.8 130.6 z M 532.7 122.2 C 532.1 122.9 531.8000000000001 123.7 531.8000000000001 124.7 L 531.8000000000001 127 C 531.8000000000001 127.1 531.9000000000001 127.2 532.0000000000001 127.2 L 537.9000000000001 127.2 C 538.0000000000001 127.2 538.1000000000001 127.10000000000001 538.1000000000001 127 L 538.1000000000001 124.7 C 538.1000000000001 123.7 537.8000000000002 122.8 537.2000000000002 122.2 C 536.6000000000001 121.5 535.9000000000002 121.2 534.9000000000002 121.2 C 534 121.2 533.3 121.6 532.7 122.2 z" stroke-linecap="round" />
</g>
		<g transform="matrix(1 0 0 1 188.3 54.75)"  >
<path style="stroke: none; stroke-width: 1; stroke-dasharray: none; stroke-linecap: butt; stroke-dashoffset: 0; stroke-linejoin: miter; stroke-miterlimit: 4; fill: rgb(10,117,51); fill-rule: nonzero; opacity: 1;" vector-effect="non-scaling-stroke"  transform=" translate(-552.85, -128.95)" d="M 547.6 138.4 C 546.3000000000001 137.20000000000002 545.6 135.5 545.6 133.4 L 545.6 124.5 C 545.6 122.5 546.3000000000001 120.8 547.6 119.6 C 548.9 118.3 550.7 117.69999999999999 552.9 117.69999999999999 C 554.4 117.69999999999999 555.6 117.99999999999999 556.6999999999999 118.49999999999999 C 557.8 119.09999999999998 558.5999999999999 119.79999999999998 559.1999999999999 120.79999999999998 C 559.8 121.79999999999998 560.0999999999999 122.79999999999998 560.0999999999999 123.99999999999999 L 560.0999999999999 124.59999999999998 C 560.0999999999999 124.89999999999998 559.9999999999999 124.99999999999999 559.6999999999999 124.99999999999999 L 556.4 125.09999999999998 C 556.1 125.09999999999998 556 124.99999999999999 556 124.69999999999997 L 556 124.29999999999997 C 556 123.49999999999997 555.7 122.79999999999997 555.1 122.19999999999997 C 554.5 121.59999999999998 553.8000000000001 121.29999999999997 552.9 121.29999999999997 C 552 121.29999999999997 551.1999999999999 121.59999999999997 550.6999999999999 122.29999999999997 C 550.1999999999999 122.99999999999997 549.8 123.79999999999997 549.8 124.79999999999997 L 549.8 133.19999999999996 C 549.8 134.19999999999996 550.0999999999999 135.09999999999997 550.6999999999999 135.69999999999996 C 551.3 136.29999999999995 551.9999999999999 136.69999999999996 552.9 136.69999999999996 C 553.8 136.69999999999996 554.5 136.39999999999995 555.1 135.79999999999995 C 555.7 135.19999999999996 556 134.49999999999994 556 133.59999999999997 L 556 133.19999999999996 C 556 132.89999999999995 556.1 132.79999999999995 556.4 132.79999999999995 L 559.6999999999999 132.79999999999995 C 559.9999999999999 132.79999999999995 560.0999999999999 132.89999999999995 560.0999999999999 133.19999999999996 L 560.0999999999999 133.79999999999995 C 560.0999999999999 135.69999999999996 559.3999999999999 137.19999999999996 558.0999999999999 138.39999999999995 C 556.8 139.59999999999994 554.9999999999999 140.19999999999996 552.8 140.19999999999996 C 550.7 140.2 548.9 139.6 547.6 138.4 z" stroke-linecap="round" />
</g>
		<g transform="matrix(1 0 0 1 206.2 54.9)"  >
<path style="stroke: none; stroke-width: 1; stroke-dasharray: none; stroke-linecap: butt; stroke-dashoffset: 0; stroke-linejoin: miter; stroke-miterlimit: 4; fill: rgb(10,117,51); fill-rule: nonzero; opacity: 1;" vector-effect="non-scaling-stroke"  transform=" translate(-570.75, -129.1)" d="M 574.2 118 L 577.5 118 C 577.8 118 577.9 118.1 577.9 118.4 L 577.9 139.4 C 577.9 139.70000000000002 577.8 139.8 577.5 139.8 L 574.2 139.8 C 573.9000000000001 139.8 573.8000000000001 139.70000000000002 573.8000000000001 139.4 L 573.8000000000001 138.20000000000002 C 573.8000000000001 138.10000000000002 573.8000000000001 138.10000000000002 573.7 138.10000000000002 C 573.6 138.10000000000002 573.6 138.10000000000002 573.5 138.20000000000002 C 572.6 139.50000000000003 571.3 140.20000000000002 569.4 140.20000000000002 C 567.6999999999999 140.20000000000002 566.3 139.70000000000002 565.1999999999999 138.60000000000002 C 564.0999999999999 137.60000000000002 563.5999999999999 136.00000000000003 563.5999999999999 133.8 L 563.5999999999999 118.4 C 563.5999999999999 118.10000000000001 563.6999999999999 118 563.9999999999999 118 L 567.2999999999998 118 C 567.5999999999998 118 567.6999999999998 118.1 567.6999999999998 118.4 L 567.6999999999998 132.9 C 567.6999999999998 135.4 568.6999999999998 136.6 570.5999999999998 136.6 C 571.5999999999998 136.6 572.2999999999998 136.2 572.8999999999997 135.5 C 573.3999999999997 134.8 573.6999999999997 133.8 573.6999999999997 132.6 L 573.6999999999997 118.39999999999999 C 573.7 118.1 573.9 118 574.2 118 z" stroke-linecap="round" />
</g>
		<g transform="matrix(1 0 0 1 223.02 54.81)"  >
<path style="stroke: none; stroke-width: 1; stroke-dasharray: none; stroke-linecap: butt; stroke-dashoffset: 0; stroke-linejoin: miter; stroke-miterlimit: 4; fill: rgb(10,117,51); fill-rule: nonzero; opacity: 1;" vector-effect="non-scaling-stroke"  transform=" translate(-587.57, -129.01)" d="M 592.5 118.3 C 592.7 118.39999999999999 592.8 118.6 592.7 118.89999999999999 L 592.1 122.19999999999999 C 592.1 122.49999999999999 591.9 122.49999999999999 591.6 122.49999999999999 C 591.2 122.39999999999999 590.8000000000001 122.29999999999998 590.4 122.29999999999998 C 590.1999999999999 122.29999999999998 590 122.29999999999998 589.6 122.39999999999998 C 588.7 122.49999999999997 588 122.99999999999997 587.4 123.89999999999998 C 586.8 124.79999999999998 586.5 125.89999999999998 586.5 127.09999999999998 L 586.5 139.7 C 586.5 140 586.4 140.1 586.1 140.1 L 582.8000000000001 140.1 C 582.5000000000001 140.1 582.4000000000001 140 582.4000000000001 139.7 L 582.4000000000001 118.69999999999999 C 582.4000000000001 118.39999999999999 582.5000000000001 118.29999999999998 582.8000000000001 118.29999999999998 L 586.1 118.29999999999998 C 586.4 118.29999999999998 586.5 118.39999999999998 586.5 118.69999999999999 L 586.5 121.19999999999999 C 586.5 121.29999999999998 586.5 121.29999999999998 586.6 121.39999999999999 C 586.6 121.39999999999999 586.7 121.39999999999999 586.7 121.3 C 587.5 119.2 588.9000000000001 118.1 590.7 118.1 C 591.4 117.8 592 117.9 592.5 118.3 z" stroke-linecap="round" />
</g>
		<g transform="matrix(1 0 0 1 233.25 50.25)"  >
<path style="stroke: none; stroke-width: 1; stroke-dasharray: none; stroke-linecap: butt; stroke-dashoffset: 0; stroke-linejoin: miter; stroke-miterlimit: 4; fill: rgb(10,117,51); fill-rule: nonzero; opacity: 1;" vector-effect="non-scaling-stroke"  transform=" translate(-597.8, -124.45)" d="M 595.8 113.8 C 595.3 113.3 595 112.6 595 111.8 C 595 111 595.3 110.3 595.8 109.8 C 596.3 109.3 597 109 597.8 109 C 598.5999999999999 109 599.3 109.3 599.8 109.8 C 600.3 110.3 600.5999999999999 111 600.5999999999999 111.8 C 600.5999999999999 112.6 600.3 113.3 599.8 113.8 C 599.3 114.3 598.5999999999999 114.6 597.8 114.6 C 596.9 114.6 596.3 114.3 595.8 113.8 z M 595.7 139.5 L 595.7 118.5 C 595.7 118.2 595.8000000000001 118.1 596.1 118.1 L 599.4 118.1 C 599.6999999999999 118.1 599.8 118.19999999999999 599.8 118.5 L 599.8 139.5 C 599.8 139.8 599.6999999999999 139.9 599.4 139.9 L 596.1 139.9 C 595.9 139.9 595.7 139.7 595.7 139.5 z" stroke-linecap="round" />
</g>
		<g transform="matrix(1 0 0 1 243.65 52.05)"  >
<path style="stroke: none; stroke-width: 1; stroke-dasharray: none; stroke-linecap: butt; stroke-dashoffset: 0; stroke-linejoin: miter; stroke-miterlimit: 4; fill: rgb(10,117,51); fill-rule: nonzero; opacity: 1;" vector-effect="non-scaling-stroke"  transform=" translate(-608.2, -126.25)" d="M 612.7 121 L 609.7 121 C 609.6 121 609.5 121.1 609.5 121.2 L 609.5 133.3 C 609.5 134.4 609.7 135.20000000000002 610.1 135.70000000000002 C 610.5 136.10000000000002 611.1 136.4 612 136.3 L 612.4 136.3 C 612.6999999999999 136.3 612.8 136.4 612.8 136.70000000000002 L 612.8 139.50000000000003 C 612.8 139.80000000000004 612.6999999999999 139.90000000000003 612.4 139.90000000000003 L 611.1 139.90000000000003 C 609.3000000000001 139.90000000000003 607.9 139.50000000000003 607 138.80000000000004 C 606.1 138.10000000000005 605.6 136.70000000000005 605.6 134.70000000000005 L 605.6 121.20000000000005 C 605.6 121.10000000000005 605.5 121.00000000000004 605.4 121.00000000000004 L 603.6999999999999 121.00000000000004 C 603.4 121.00000000000004 603.3 120.90000000000005 603.3 120.60000000000004 L 603.3 118.40000000000003 C 603.3 118.10000000000004 603.4 118.00000000000003 603.6999999999999 118.00000000000003 L 605.4 118.00000000000003 C 605.5 118.00000000000003 605.6 117.90000000000003 605.6 117.80000000000003 L 605.6 113 C 605.6 112.7 605.7 112.6 606 112.6 L 609.1 112.6 C 609.4 112.6 609.5 112.69999999999999 609.5 113 L 609.5 117.9 C 609.5 118 609.6 118.10000000000001 609.7 118.10000000000001 L 612.7 118.10000000000001 C 613 118.10000000000001 613.1 118.2 613.1 118.50000000000001 L 613.1 120.70000000000002 C 613.1 120.9 613 121 612.7 121 z" stroke-linecap="round" />
</g>
		<g transform="matrix(1 0 0 1 257.99 59.15)"  >
<path style="stroke: none; stroke-width: 1; stroke-dasharray: none; stroke-linecap: butt; stroke-dashoffset: 0; stroke-linejoin: miter; stroke-miterlimit: 4; fill: rgb(10,117,51); fill-rule: nonzero; opacity: 1;" vector-effect="non-scaling-stroke"  transform=" translate(-622.54, -133.35)" d="M 615.8 148.3 C 615.6999999999999 148.20000000000002 615.6999999999999 148.10000000000002 615.6999999999999 148 L 615.6999999999999 145.5 C 615.6999999999999 145.2 615.8 145.1 616.0999999999999 145.1 C 616.9999999999999 145.1 617.6999999999999 144.9 618.3 144.7 C 618.8 144.39999999999998 619.3 144 619.5999999999999 143.2 C 619.8999999999999 142.39999999999998 620.1999999999999 141.39999999999998 620.3999999999999 140.1 L 620.3999999999999 139.9 L 614.8999999999999 118.60000000000001 L 614.8999999999999 118.50000000000001 C 614.8999999999999 118.30000000000001 614.9999999999999 118.20000000000002 615.2999999999998 118.20000000000002 L 618.7999999999998 118.20000000000002 C 619.0999999999998 118.20000000000002 619.1999999999998 118.30000000000001 619.2999999999998 118.60000000000002 L 622.3999999999999 134.10000000000002 C 622.3999999999999 134.20000000000002 622.4999999999999 134.20000000000002 622.4999999999999 134.20000000000002 C 622.4999999999999 134.20000000000002 622.5999999999999 134.20000000000002 622.5999999999999 134.10000000000002 L 625.6999999999999 118.60000000000002 C 625.8 118.30000000000003 625.9 118.20000000000002 626.1999999999999 118.20000000000002 L 629.8 118.20000000000002 C 629.9 118.20000000000002 630 118.20000000000002 630.0999999999999 118.30000000000001 C 630.1999999999998 118.4 630.1999999999999 118.50000000000001 630.0999999999999 118.60000000000001 L 624.1999999999999 141.5 C 623.6999999999999 143.5 623.0999999999999 144.9 622.5999999999999 145.9 C 622.0999999999999 146.9 621.3 147.5 620.3 147.9 C 619.3 148.3 618 148.5 616.1999999999999 148.5 L 616 148.5 C 615.9 148.4 615.9 148.4 615.8 148.3 z" stroke-linecap="round" />
</g>
		<g transform="matrix(1 0 0 1 284 50.8)"  >
<path style="stroke: none; stroke-width: 1; stroke-dasharray: none; stroke-linecap: butt; stroke-dashoffset: 0; stroke-linejoin: miter; stroke-miterlimit: 4; fill: rgb(10,117,51); fill-rule: nonzero; opacity: 1;" vector-effect="non-scaling-stroke"  transform=" translate(-648.55, -125)" d="M 643.1 138.1 C 641.7 136.7 641 134.79999999999998 641 132.5 L 641 131.4 C 641 131.1 641.1 131 641.4 131 L 644.6 131 C 644.9 131 645 131.1 645 131.4 L 645 132.3 C 645 133.60000000000002 645.3 134.70000000000002 646 135.5 C 646.7 136.3 647.5 136.7 648.5 136.7 C 649.5 136.7 650.4 136.29999999999998 651.1 135.6 C 651.8000000000001 134.79999999999998 652.1 133.79999999999998 652.1 132.6 C 652.1 131.79999999999998 651.9 131 651.6 130.4 C 651.2 129.8 650.8000000000001 129.20000000000002 650.2 128.70000000000002 C 649.6 128.20000000000002 648.7 127.50000000000001 647.3000000000001 126.50000000000001 C 645.8000000000001 125.40000000000002 644.7 124.50000000000001 643.9000000000001 123.70000000000002 C 643.1000000000001 122.90000000000002 642.4000000000001 122.00000000000001 641.8000000000001 120.90000000000002 C 641.2 119.80000000000003 640.9000000000001 118.50000000000001 640.9000000000001 117.10000000000002 C 640.9000000000001 114.80000000000003 641.6000000000001 112.90000000000002 643.0000000000001 111.60000000000002 C 644.4000000000001 110.30000000000003 646.2000000000002 109.60000000000002 648.4000000000001 109.60000000000002 C 650.7 109.60000000000002 652.5000000000001 110.30000000000003 653.9000000000001 111.80000000000003 C 655.3000000000001 113.30000000000003 656.0000000000001 115.20000000000003 656.0000000000001 117.60000000000002 L 656.0000000000001 118.70000000000002 C 656.0000000000001 119.00000000000001 655.9000000000001 119.10000000000002 655.6000000000001 119.10000000000002 L 652.4000000000001 119.10000000000002 C 652.1000000000001 119.10000000000002 652.0000000000001 119.00000000000003 652.0000000000001 118.70000000000002 L 652.0000000000001 117.50000000000001 C 652.0000000000001 116.20000000000002 651.7000000000002 115.20000000000002 651.0000000000001 114.40000000000002 C 650.3000000000001 113.60000000000002 649.5000000000001 113.20000000000002 648.4000000000001 113.20000000000002 C 647.4000000000001 113.20000000000002 646.6000000000001 113.60000000000002 645.9000000000001 114.30000000000001 C 645.3000000000001 115.00000000000001 645.0000000000001 116.00000000000001 645.0000000000001 117.20000000000002 C 645.0000000000001 118.30000000000001 645.3000000000001 119.30000000000001 645.9000000000001 120.10000000000002 C 646.5000000000001 120.90000000000002 647.7 121.90000000000002 649.6000000000001 123.30000000000003 C 651.3000000000002 124.60000000000002 652.6000000000001 125.60000000000002 653.5000000000001 126.40000000000002 C 654.4000000000001 127.20000000000002 655.0000000000001 128.10000000000002 655.5000000000001 129.00000000000003 C 656.0000000000001 130.00000000000003 656.2000000000002 131.10000000000002 656.2000000000002 132.40000000000003 C 656.2000000000002 134.80000000000004 655.5000000000001 136.70000000000005 654.1000000000001 138.20000000000005 C 652.7000000000002 139.60000000000005 650.9000000000001 140.40000000000003 648.6000000000001 140.40000000000003 C 646.3 140.2 644.5 139.5 643.1 138.1 z" stroke-linecap="round" />
</g>
		<g transform="matrix(1 0 0 1 302.2 54.9)"  >
<path style="stroke: none; stroke-width: 1; stroke-dasharray: none; stroke-linecap: butt; stroke-dashoffset: 0; stroke-linejoin: miter; stroke-miterlimit: 4; fill: rgb(10,117,51); fill-rule: nonzero; opacity: 1;" vector-effect="non-scaling-stroke"  transform=" translate(-666.75, -129.1)" d="M 673.6 130.6 L 663.9 130.6 C 663.8 130.6 663.6999999999999 130.7 663.6999999999999 130.79999999999998 L 663.6999999999999 133.1 C 663.6999999999999 134.1 663.9999999999999 135 664.5999999999999 135.6 C 665.1999999999999 136.2 665.8999999999999 136.6 666.8 136.6 C 667.5999999999999 136.6 668.3 136.4 668.8 135.9 C 669.3 135.4 669.6999999999999 134.8 669.8 134 C 669.9 133.8 670 133.7 670.3 133.7 L 673.5 133.89999999999998 C 673.6 133.89999999999998 673.7 133.89999999999998 673.8 133.99999999999997 C 673.9 134.09999999999997 673.9 134.19999999999996 673.9 134.29999999999998 C 673.6999999999999 136.2 673 137.6 671.8 138.7 C 670.5999999999999 139.7 668.9 140.29999999999998 666.8 140.29999999999998 C 664.5999999999999 140.29999999999998 662.8 139.7 661.5 138.49999999999997 C 660.2 137.29999999999998 659.5 135.59999999999997 659.5 133.59999999999997 L 659.5 124.69999999999996 C 659.5 122.69999999999996 660.2 120.99999999999996 661.5 119.79999999999995 C 662.8 118.49999999999996 664.6 117.89999999999995 666.8 117.89999999999995 C 669 117.89999999999995 670.8 118.49999999999994 672.0999999999999 119.79999999999995 C 673.3999999999999 121.09999999999995 673.9999999999999 122.69999999999996 673.9999999999999 124.69999999999996 L 673.9999999999999 130.39999999999995 C 674 130.5 673.9 130.6 673.6 130.6 z M 664.6 122.2 C 664 122.9 663.7 123.7 663.7 124.7 L 663.7 127 C 663.7 127.1 663.8000000000001 127.2 663.9000000000001 127.2 L 669.8000000000001 127.2 C 669.9000000000001 127.2 670.0000000000001 127.10000000000001 670.0000000000001 127 L 670.0000000000001 124.7 C 670.0000000000001 123.7 669.7000000000002 122.8 669.1000000000001 122.2 C 668.5000000000001 121.5 667.8000000000002 121.2 666.8000000000002 121.2 C 665.9 121.2 665.1 121.6 664.6 122.2 z" stroke-linecap="round" />
</g>
		<g transform="matrix(1 0 0 1 320.5 54.55)"  >
<path style="stroke: none; stroke-width: 1; stroke-dasharray: none; stroke-linecap: butt; stroke-dashoffset: 0; stroke-linejoin: miter; stroke-miterlimit: 4; fill: rgb(10,117,51); fill-rule: nonzero; opacity: 1;" vector-effect="non-scaling-stroke"  transform=" translate(-685.05, -128.75)" d="M 690.8 119.5 C 691.8 120.7 692.1999999999999 122.4 692.1999999999999 124.7 L 692.1999999999999 139.4 C 692.1999999999999 139.70000000000002 692.0999999999999 139.8 691.8 139.8 L 688.5 139.8 C 688.2 139.8 688.1 139.70000000000002 688.1 139.4 L 688.1 125 C 688.1 123.8 687.8000000000001 122.9 687.3000000000001 122.2 C 686.8000000000001 121.5 686.1 121.2 685.1 121.2 C 684.2 121.2 683.4 121.5 682.9 122.2 C 682.4 122.8 682.1 123.8 682 124.9 C 682 125.10000000000001 682 125.2 682 125.2 L 682 139.4 C 682 139.70000000000002 681.9 139.8 681.6 139.8 L 678.3000000000001 139.8 C 678.0000000000001 139.8 677.9000000000001 139.70000000000002 677.9000000000001 139.4 L 677.9000000000001 118.4 C 677.9000000000001 118.10000000000001 678.0000000000001 118 678.3000000000001 118 L 681.6 118 C 681.9 118 682 118.1 682 118.4 L 682 119.60000000000001 C 682 119.7 682 119.7 682.1 119.7 C 682.2 119.7 682.2 119.7 682.3000000000001 119.60000000000001 C 683.3000000000001 118.30000000000001 684.8000000000001 117.7 686.6 117.7 C 688.4 117.7 689.8 118.3 690.8 119.5 z" stroke-linecap="round" />
</g>
		<g transform="matrix(1 0 0 1 338 54.8)"  >
<path style="stroke: none; stroke-width: 1; stroke-dasharray: none; stroke-linecap: butt; stroke-dashoffset: 0; stroke-linejoin: miter; stroke-miterlimit: 4; fill: rgb(10,117,51); fill-rule: nonzero; opacity: 1;" vector-effect="non-scaling-stroke"  transform=" translate(-702.55, -129)" d="M 697.6 138.6 C 696.4 137.6 695.7 136.1 695.7 134.4 L 695.7 134 C 695.7 133.7 695.8000000000001 133.6 696.1 133.6 L 699.2 133.6 C 699.5 133.6 699.6 133.7 699.6 134 L 699.6 134.3 C 699.6 135.10000000000002 699.9 135.70000000000002 700.5 136.3 C 701.1 136.8 701.8 137.10000000000002 702.7 137.10000000000002 C 703.6 137.10000000000002 704.3000000000001 136.8 704.8000000000001 136.3 C 705.3000000000001 135.8 705.6 135.10000000000002 705.6 134.3 C 705.6 133.70000000000002 705.4 133.10000000000002 705 132.70000000000002 C 704.6 132.3 704.2 131.9 703.7 131.70000000000002 C 703.2 131.50000000000003 702.4000000000001 131.10000000000002 701.4000000000001 130.70000000000002 C 700.3000000000001 130.20000000000002 699.4000000000001 129.70000000000002 698.6000000000001 129.3 C 697.9000000000001 128.8 697.2000000000002 128.20000000000002 696.6000000000001 127.30000000000001 C 696.0000000000001 126.4 695.7000000000002 125.4 695.7000000000002 124.00000000000001 C 695.7000000000002 122.10000000000001 696.3000000000002 120.50000000000001 697.5000000000001 119.40000000000002 C 698.7000000000002 118.30000000000003 700.4000000000001 117.80000000000003 702.4000000000001 117.80000000000003 C 704.5000000000001 117.80000000000003 706.2 118.40000000000002 707.4000000000001 119.50000000000003 C 708.6000000000001 120.60000000000004 709.2 122.10000000000002 709.2 124.10000000000002 L 709.2 124.20000000000002 C 709.2 124.50000000000001 709.1 124.60000000000002 708.8000000000001 124.60000000000002 L 705.8000000000001 124.60000000000002 C 705.5000000000001 124.60000000000002 705.4000000000001 124.50000000000003 705.4000000000001 124.20000000000002 L 705.4000000000001 123.90000000000002 C 705.4000000000001 123.10000000000002 705.1000000000001 122.50000000000001 704.6000000000001 121.90000000000002 C 704.1000000000001 121.30000000000003 703.4000000000001 121.10000000000002 702.5000000000001 121.10000000000002 C 701.6000000000001 121.10000000000002 700.9000000000001 121.40000000000002 700.4000000000001 121.90000000000002 C 699.9000000000001 122.40000000000002 699.6000000000001 123.10000000000002 699.6000000000001 123.90000000000002 C 699.6000000000001 124.50000000000001 699.8000000000002 125.00000000000001 700.1000000000001 125.40000000000002 C 700.4000000000001 125.80000000000003 700.9000000000001 126.10000000000002 701.3000000000002 126.40000000000002 C 701.8000000000002 126.60000000000002 702.6000000000001 127.00000000000001 703.6000000000001 127.50000000000001 C 704.8000000000002 128 705.8000000000002 128.5 706.5000000000001 129 C 707.3000000000001 129.5 708.0000000000001 130.1 708.5000000000001 131 C 709.1000000000001 131.9 709.4000000000001 132.9 709.4000000000001 134.2 C 709.4000000000001 136.1 708.8000000000001 137.5 707.5000000000001 138.6 C 706.2000000000002 139.7 704.5000000000001 140.2 702.3000000000001 140.2 C 700.5 140.2 698.8 139.6 697.6 138.6 z" stroke-linecap="round" />
</g>
		<g transform="matrix(1 0 0 1 355.32 54.9)"  >
<path style="stroke: none; stroke-width: 1; stroke-dasharray: none; stroke-linecap: butt; stroke-dashoffset: 0; stroke-linejoin: miter; stroke-miterlimit: 4; fill: rgb(10,117,51); fill-rule: nonzero; opacity: 1;" vector-effect="non-scaling-stroke"  transform=" translate(-719.86, -129.1)" d="M 726.7 130.6 L 717 130.6 C 716.9 130.6 716.8 130.7 716.8 130.79999999999998 L 716.8 133.1 C 716.8 134.1 717.0999999999999 135 717.6999999999999 135.6 C 718.3 136.29999999999998 718.9999999999999 136.6 719.9 136.6 C 720.6999999999999 136.6 721.4 136.4 721.9 135.9 C 722.4 135.4 722.8 134.8 722.9 134 C 723 133.8 723.1 133.7 723.4 133.7 L 726.6 133.89999999999998 C 726.7 133.89999999999998 726.9 133.89999999999998 726.9 133.99999999999997 C 727 134.09999999999997 727 134.19999999999996 727 134.29999999999998 C 726.8 136.2 726.1 137.6 724.9 138.7 C 723.6999999999999 139.7 722 140.29999999999998 719.9 140.29999999999998 C 717.6999999999999 140.29999999999998 715.9 139.7 714.6 138.49999999999997 C 713.3000000000001 137.29999999999998 712.6 135.59999999999997 712.6 133.59999999999997 L 712.6 124.69999999999996 C 712.6 122.69999999999996 713.3000000000001 120.99999999999996 714.6 119.79999999999995 C 715.9 118.49999999999996 717.7 117.89999999999995 719.9 117.89999999999995 C 722.1 117.89999999999995 723.9 118.49999999999994 725.1999999999999 119.79999999999995 C 726.4999999999999 121.09999999999997 727.0999999999999 122.69999999999996 727.0999999999999 124.69999999999996 L 727.0999999999999 130.39999999999995 C 727.2 130.5 727 130.6 726.7 130.6 z M 717.7 122.2 C 717.1 122.9 716.8000000000001 123.7 716.8000000000001 124.7 L 716.8000000000001 127 C 716.8000000000001 127.1 716.9000000000001 127.2 717.0000000000001 127.2 L 722.9000000000001 127.2 C 723.0000000000001 127.2 723.1000000000001 127.10000000000001 723.1000000000001 127 L 723.1000000000001 124.7 C 723.1000000000001 123.7 722.8000000000002 122.8 722.2000000000002 122.2 C 721.6000000000001 121.60000000000001 720.9000000000002 121.2 719.9000000000002 121.2 C 719 121.2 718.3 121.6 717.7 122.2 z" stroke-linecap="round" />
</g>
</g>
</g>
</svg>